<svg xmlns="http://www.w3.org/2000/svg" width="94.962" height="24" viewBox="0 0 94.962 24">
  <g id="Group_43" data-name="Group 43" transform="translate(-16.038 -137)">
    <g id="Group_42" data-name="Group 42" transform="translate(16.109 139.693)">
      <path id="Path_17" data-name="Path 17" d="M1288.919,933.273c2.194-1.416,3.609.072,3.025,2.426a3.047,3.047,0,0,1,2.162-.706c-2.258-3.564-.285-4.337.713-4.22s2.537.364.927,4.22c.769.052,1.427.112,1.69.945-1.023-5.634,6.641-2.574.884.519.487.575.716.619.716,1.124,1.435-.31,1.837-2.544,3.382-.813s-.851,2.2-2.793,2.225c-.394.4-.267,1.037-.255,1.517,3.823-1,3.629,1.558,3.282,2.147s-1.842,1.806-3.825-1c-.451.031-.759.64-.889,1,2.576,2.933,2.894,3.681.568,3.568-.664-.092-1.191-3.027-2.04-3.025.215,5-.484,4.672-2.027,4.6s-1.282-1.764-1.324-1.993c-.095-1.034,1.263-.854.991-2.184a3.429,3.429,0,0,0-.991,0c-.809,2.124-2.246,2.906-3.131,1.924s1.267-2.411,1.96-2.652c-1.071-1.527-1.191.056-1.96.31a1.862,1.862,0,0,1-2.822-1.548c0-.511.789-2.3,3.139-1.343.089-.616.148-.834,0-1.132-3.309,1.137-3.588.2-3.661-.875s1.507-1.664,3.661-.425a1.555,1.555,0,0,1,1.174-1.109A7.483,7.483,0,0,1,1288.919,933.273Z" transform="translate(-1284.094 -929.193)" fill="#d3d3d3" stroke="#000" stroke-width="0.2"/>
      <path id="Path_16" data-name="Path 16" d="M1283.847,930.1l21.091,20.938" transform="translate(-1283.847 -930.104)" fill="none" stroke="#000" stroke-width="0.2"/>
    </g>
    <text id="CORONAVIRUS_LIVE_UPDATE" data-name="CORONAVIRUS
LIVE UPDATE" transform="translate(39 147)" font-size="10" font-family="HelveticaNeue, Helvetica Neue"><tspan x="0" y="0">CORONAVIRUS</tspan><tspan x="0" y="12">LIVE UPDATE</tspan></text>
  </g>
</svg>
