<svg xmlns="http://www.w3.org/2000/svg" width="1599" height="580" viewBox="0 0 1599 580">
  <g id="Group_38" data-name="Group 38" transform="translate(-52 -59)">
    <g id="Group_13" data-name="Group 13" transform="translate(420 -31)">
      <g id="Rectangle_20" data-name="Rectangle 20" transform="translate(212 90)" fill="#fff" stroke="#707070" stroke-width="1">
        <rect width="70" height="39" stroke="none"/>
        <rect x="0.5" y="0.5" width="69" height="38" fill="none"/>
      </g>
      <text id="App" transform="translate(229 117)" fill="#707070" font-size="20" font-family="HelveticaNeue, Helvetica Neue"><tspan x="0" y="0">App</tspan></text>
    </g>
    <line id="Line_4" data-name="Line 4" y1="43" transform="translate(667.5 98.5)" fill="none" stroke="#707070" stroke-width="1"/>
    <g id="Group_14" data-name="Group 14" transform="translate(412 52)">
      <g id="Rectangle_20-2" data-name="Rectangle 20" transform="translate(212 90)" fill="#fff" stroke="#707070" stroke-width="1">
        <rect width="86" height="39" stroke="none"/>
        <rect x="0.5" y="0.5" width="85" height="38" fill="none"/>
      </g>
      <text id="Layout" transform="translate(225 117)" fill="#707070" font-size="20" font-family="HelveticaNeue, Helvetica Neue"><tspan x="0" y="0">Layout</tspan></text>
    </g>
    <g id="Group_15" data-name="Group 15" transform="translate(-160 177)">
      <g id="Rectangle_20-3" data-name="Rectangle 20" transform="translate(212 90)" fill="#fff" stroke="#707070" stroke-width="1">
        <rect width="86" height="39" stroke="none"/>
        <rect x="0.5" y="0.5" width="85" height="38" fill="none"/>
      </g>
      <text id="Logo" transform="translate(232 117)" fill="#707070" font-size="20" font-family="HelveticaNeue, Helvetica Neue"><tspan x="0" y="0">Logo</tspan></text>
    </g>
    <g id="Group_16" data-name="Group 16" transform="translate(22 178)">
      <g id="Rectangle_20-4" data-name="Rectangle 20" transform="translate(212 89)" fill="#fff" stroke="#707070" stroke-width="1">
        <rect width="86" height="39" stroke="none"/>
        <rect x="0.5" y="0.5" width="85" height="38" fill="none"/>
      </g>
      <text id="Filter_" data-name="Filter
" transform="translate(232 117)" fill="#707070" font-size="20" font-family="HelveticaNeue, Helvetica Neue"><tspan x="0" y="0">Filter</tspan><tspan x="0" y="24"></tspan></text>
    </g>
    <g id="Group_17" data-name="Group 17" transform="translate(310 178)">
      <g id="Rectangle_20-5" data-name="Rectangle 20" transform="translate(212 89)" fill="#fff" stroke="#707070" stroke-width="1">
        <rect width="86" height="39" stroke="none"/>
        <rect x="0.5" y="0.5" width="85" height="38" fill="none"/>
      </g>
      <text id="Menu" transform="translate(232 117)" fill="#707070" font-size="20" font-family="HelveticaNeue, Helvetica Neue"><tspan x="0" y="0">Menu</tspan></text>
    </g>
    <g id="Group_18" data-name="Group 18" transform="translate(863 178)">
      <g id="Rectangle_20-6" data-name="Rectangle 20" transform="translate(212 89)" fill="#fff" stroke="#707070" stroke-width="1">
        <rect width="86" height="39" stroke="none"/>
        <rect x="0.5" y="0.5" width="85" height="38" fill="none"/>
      </g>
      <text id="Main" transform="translate(232 117)" fill="#707070" font-size="20" font-family="HelveticaNeue, Helvetica Neue"><tspan x="0" y="0">Main</tspan></text>
    </g>
    <g id="Group_19" data-name="Group 19" transform="translate(637 302)">
      <g id="Rectangle_20-7" data-name="Rectangle 20" transform="translate(212 89)" fill="#fff" stroke="#707070" stroke-width="1">
        <rect width="86" height="39" stroke="none"/>
        <rect x="0.5" y="0.5" width="85" height="38" fill="none"/>
      </g>
      <text id="Chart" transform="translate(231 116)" fill="#707070" font-size="20" font-family="HelveticaNeue, Helvetica Neue"><tspan x="0" y="0">Chart</tspan></text>
    </g>
    <g id="Group_30" data-name="Group 30" transform="translate(-132 302)">
      <g id="Rectangle_20-8" data-name="Rectangle 20" transform="translate(212 89)" fill="#fff" stroke="#707070" stroke-width="1">
        <rect width="44" height="39" rx="10" stroke="none"/>
        <rect x="0.5" y="0.5" width="43" height="38" rx="9.5" fill="none"/>
      </g>
      <text id="All" transform="translate(223 116)" fill="#707070" font-size="20" font-family="HelveticaNeue, Helvetica Neue"><tspan x="0" y="0">All</tspan></text>
    </g>
    <g id="Group_35" data-name="Group 35" transform="translate(158 302)">
      <g id="Rectangle_20-9" data-name="Rectangle 20" transform="translate(212 89)" fill="#fff" stroke="#707070" stroke-width="1">
        <rect width="126" height="39" rx="10" stroke="none"/>
        <rect x="0.5" y="0.5" width="125" height="38" rx="9.5" fill="none"/>
      </g>
      <text id="Notification" transform="translate(223 116)" fill="#707070" font-size="20" font-family="HelveticaNeue, Helvetica Neue"><tspan x="0" y="0">Notification</tspan></text>
    </g>
    <g id="Group_20" data-name="Group 20" transform="translate(783 302)">
      <g id="Rectangle_20-10" data-name="Rectangle 20" transform="translate(212 89)" fill="#83cfff" stroke="#707070" stroke-width="1">
        <rect width="133" height="39" stroke="none"/>
        <rect x="0.5" y="0.5" width="132" height="38" fill="none"/>
      </g>
      <text id="World_Overal_" data-name="World Overal
" transform="translate(221 116)" fill="#707070" font-size="20" font-family="HelveticaNeue, Helvetica Neue"><tspan x="0" y="0">World Overal</tspan><tspan x="0" y="24"></tspan></text>
    </g>
    <g id="Group_31" data-name="Group 31" transform="translate(-80 302)">
      <g id="Rectangle_20-11" data-name="Rectangle 20" transform="translate(212 89)" fill="#fff" stroke="#707070" stroke-width="1">
        <rect width="72" height="39" rx="10" stroke="none"/>
        <rect x="0.5" y="0.5" width="71" height="38" rx="9.5" fill="none"/>
      </g>
      <text id="Today" transform="translate(221 116)" fill="#707070" font-size="20" font-family="HelveticaNeue, Helvetica Neue"><tspan x="0" y="0">Today</tspan></text>
    </g>
    <g id="Group_33" data-name="Group 33" transform="translate(297 302)">
      <g id="Rectangle_20-12" data-name="Rectangle 20" transform="translate(212 89)" fill="#83cfff" stroke="#707070" stroke-width="1">
        <rect width="72" height="39" rx="10" stroke="none"/>
        <rect x="0.5" y="0.5" width="71" height="38" rx="9.5" fill="none"/>
      </g>
      <text id="Home" transform="translate(221 116)" fill="#707070" font-size="20" font-family="HelveticaNeue, Helvetica Neue"><tspan x="0" y="0">Home</tspan></text>
    </g>
    <g id="Group_22" data-name="Group 22" transform="translate(627 428)">
      <g id="Rectangle_20-13" data-name="Rectangle 20" transform="translate(212 89)" fill="#fff" stroke="#707070" stroke-width="1">
        <rect width="107" height="39" stroke="none"/>
        <rect x="0.5" y="0.5" width="106" height="38" fill="none"/>
      </g>
      <text id="Reports_" data-name="Reports
" transform="translate(230 115)" fill="#707070" font-size="20" font-family="HelveticaNeue, Helvetica Neue"><tspan x="0" y="0">Reports</tspan><tspan x="0" y="24"></tspan></text>
    </g>
    <g id="Group_28" data-name="Group 28" transform="translate(997 427)">
      <g id="Rectangle_20-14" data-name="Rectangle 20" transform="translate(212 89)" fill="#fff" stroke="#707070" stroke-width="1">
        <rect width="132" height="39" stroke="none"/>
        <rect x="0.5" y="0.5" width="131" height="38" fill="none"/>
      </g>
      <text id="Country_Info" data-name="Country Info" transform="translate(223 116)" fill="#707070" font-size="20" font-family="HelveticaNeue, Helvetica Neue"><tspan x="0" y="0">Country Info</tspan></text>
    </g>
    <g id="Group_25" data-name="Group 25" transform="translate(842 428)">
      <g id="Rectangle_20-15" data-name="Rectangle 20" transform="translate(212 89)" fill="#fff" stroke="#707070" stroke-width="1">
        <rect width="107" height="39" stroke="none"/>
        <rect x="0.5" y="0.5" width="106" height="38" fill="none"/>
      </g>
      <text id="News" transform="translate(241 116)" fill="#707070" font-size="20" font-family="HelveticaNeue, Helvetica Neue"><tspan x="0" y="0">News</tspan></text>
    </g>
    <g id="Group_29" data-name="Group 29" transform="translate(1169.49 427)">
      <g id="Rectangle_20-16" data-name="Rectangle 20" transform="translate(211.51 89)" fill="#fff" stroke="#707070" stroke-width="1">
        <rect width="154" height="39" stroke="none"/>
        <rect x="0.5" y="0.5" width="153" height="38" fill="none"/>
      </g>
      <text id="Country_News" data-name="Country News" transform="translate(225.51 116)" fill="#707070" font-size="20" font-family="HelveticaNeue, Helvetica Neue"><tspan x="0" y="0">Country News</tspan></text>
    </g>
    <g id="Group_23" data-name="Group 23" transform="translate(627 496)">
      <g id="Path_11" data-name="Path 11" transform="translate(212 89)" fill="#ff9a9a">
        <path d="M 106.5 38.5 L 0.5 38.5 L 0.5 0.5 L 106.5 0.5 L 106.5 38.5 Z" stroke="none"/>
        <path d="M 1 1 L 1 38 L 106 38 L 106 1 L 1 1 M 0 0 L 107 0 L 107 39 L 0 39 L 0 0 Z" stroke="none" fill="#707070"/>
      </g>
      <text id="Report_" data-name="Report
" transform="translate(235 115)" fill="#707070" font-size="20" font-family="HelveticaNeue, Helvetica Neue"><tspan x="0" y="0">Report</tspan><tspan x="0" y="24"></tspan></text>
    </g>
    <g id="Group_26" data-name="Group 26" transform="translate(842 496)">
      <g id="Rectangle_20-17" data-name="Rectangle 20" transform="translate(212 89)" fill="#fff" stroke="#707070" stroke-width="1">
        <rect width="107" height="39" stroke="none"/>
        <rect x="0.5" y="0.5" width="106" height="38" fill="none"/>
      </g>
      <text id="Article" transform="translate(238 116)" fill="#707070" font-size="20" font-family="HelveticaNeue, Helvetica Neue"><tspan x="0" y="0">Article</tspan></text>
    </g>
    <g id="Group_39" data-name="Group 39" transform="translate(1164 496)">
      <g id="Rectangle_20-18" data-name="Rectangle 20" transform="translate(212 89)" fill="#fff" stroke="#707070" stroke-width="1">
        <rect width="163" height="39" stroke="none"/>
        <rect x="0.5" y="0.5" width="162" height="38" fill="none"/>
      </g>
      <text id="Country_Article" data-name="Country Article" transform="translate(227 116)" fill="#707070" font-size="20" font-family="HelveticaNeue, Helvetica Neue"><tspan x="0" y="0">Country Article</tspan></text>
    </g>
    <g id="Group_21" data-name="Group 21" transform="translate(1055 302)">
      <g id="Rectangle_20-19" data-name="Rectangle 20" transform="translate(212 89)" fill="#ff9a9a" stroke="#707070" stroke-width="1">
        <rect width="155" height="39" stroke="none"/>
        <rect x="0.5" y="0.5" width="154" height="38" fill="none"/>
      </g>
      <text id="Country_Detail" data-name="Country Detail" transform="translate(226 116)" fill="#707070" font-size="20" font-family="HelveticaNeue, Helvetica Neue"><tspan x="0" y="0">Country Detail</tspan></text>
    </g>
    <g id="Group_37" data-name="Group 37" transform="translate(1312 302)">
      <g id="Path_10" data-name="Path 10" transform="translate(212 89)" fill="#ebff00">
        <path d="M 126.5 38.5 L 0.5 38.5 L 0.5 0.5 L 126.5 0.5 L 126.5 38.5 Z" stroke="none"/>
        <path d="M 1 1 L 1 38 L 126 38 L 126 1 L 1 1 M 0 0 L 127 0 L 127 39 L 0 39 L 0 0 Z" stroke="none" fill="#707070"/>
      </g>
      <text id="Prevention" transform="translate(228 116)" fill="#707070" font-size="20" font-family="HelveticaNeue, Helvetica Neue"><tspan x="0" y="0">Prevention</tspan></text>
    </g>
    <g id="Group_32" data-name="Group 32" transform="translate(13 302)">
      <g id="Rectangle_20-20" data-name="Rectangle 20" transform="translate(212 89)" fill="#fff" stroke="#707070" stroke-width="1">
        <rect width="105" height="39" rx="10" stroke="none"/>
        <rect x="0.5" y="0.5" width="104" height="38" rx="9.5" fill="none"/>
      </g>
      <text id="Yesterday" transform="translate(221 116)" fill="#707070" font-size="20" font-family="HelveticaNeue, Helvetica Neue"><tspan x="0" y="0">Yesterday</tspan></text>
    </g>
    <g id="Group_34" data-name="Group 34" transform="translate(388 302)">
      <g id="Rectangle_20-21" data-name="Rectangle 20" transform="translate(212 89)" fill="#fff" stroke="#707070" stroke-width="1">
        <rect width="69" height="39" rx="10" stroke="none"/>
        <rect x="0.5" y="0.5" width="68" height="38" rx="9.5" fill="none"/>
      </g>
      <text id="Chart-2" data-name="Chart" transform="translate(221 116)" fill="#707070" font-size="20" font-family="HelveticaNeue, Helvetica Neue"><tspan x="0" y="0">Chart</tspan></text>
    </g>
    <g id="Group_36" data-name="Group 36" transform="translate(469 302)">
      <g id="Rectangle_20-22" data-name="Rectangle 20" transform="translate(212 89)" fill="#ebff00" stroke="#707070" stroke-width="1">
        <rect width="112" height="39" rx="10" stroke="none"/>
        <rect x="0.5" y="0.5" width="111" height="38" rx="9.5" fill="none"/>
      </g>
      <text id="Prevention-2" data-name="Prevention" transform="translate(221 116)" fill="#707070" font-size="20" font-family="HelveticaNeue, Helvetica Neue"><tspan x="0" y="0">Prevention</tspan></text>
    </g>
    <line id="Line_5" data-name="Line 5" y1="43" transform="translate(667.5 181.5)" fill="none" stroke="#707070" stroke-width="1"/>
    <line id="Line_7" data-name="Line 7" y1="43" transform="translate(94.5 224.5)" fill="none" stroke="#707070" stroke-width="1"/>
    <line id="Line_8" data-name="Line 8" y1="43" transform="translate(277.5 224.5)" fill="none" stroke="#707070" stroke-width="1"/>
    <line id="Line_9" data-name="Line 9" y1="43" transform="translate(565.5 224.5)" fill="none" stroke="#707070" stroke-width="1"/>
    <line id="Line_10" data-name="Line 10" y1="43" transform="translate(1118.5 224.5)" fill="none" stroke="#707070" stroke-width="1"/>
    <line id="Line_11" data-name="Line 11" y1="43" transform="translate(1118.5 305.5)" fill="none" stroke="#707070" stroke-width="1"/>
    <line id="Line_28" data-name="Line 28" y1="43" transform="translate(277.5 305.5)" fill="none" stroke="#707070" stroke-width="1"/>
    <line id="Line_32" data-name="Line 32" y1="43" transform="translate(565.5 305.5)" fill="none" stroke="#707070" stroke-width="1"/>
    <line id="Line_12" data-name="Line 12" y1="43" transform="translate(892.5 348.5)" fill="none" stroke="#707070" stroke-width="1"/>
    <line id="Line_26" data-name="Line 26" y1="43" transform="translate(102.5 348.5)" fill="none" stroke="#707070" stroke-width="1"/>
    <line id="Line_29" data-name="Line 29" y1="43" transform="translate(433.5 348.5)" fill="none" stroke="#707070" stroke-width="1"/>
    <line id="Line_13" data-name="Line 13" y1="43" transform="translate(1061.5 348.5)" fill="none" stroke="#707070" stroke-width="1"/>
    <line id="Line_25" data-name="Line 25" y1="43" transform="translate(167.5 348.5)" fill="none" stroke="#707070" stroke-width="1"/>
    <line id="Line_30" data-name="Line 30" y1="43" transform="translate(544.5 348.5)" fill="none" stroke="#707070" stroke-width="1"/>
    <line id="Line_15" data-name="Line 15" y1="43" transform="translate(892.5 473.5)" fill="none" stroke="#707070" stroke-width="1"/>
    <line id="Line_22" data-name="Line 22" y1="43" transform="translate(1274.5 472.5)" fill="none" stroke="#707070" stroke-width="1"/>
    <line id="Line_21" data-name="Line 21" y1="43" transform="translate(1107.5 473.5)" fill="none" stroke="#707070" stroke-width="1"/>
    <line id="Line_23" data-name="Line 23" y1="43" transform="translate(1457.5 472.5)" fill="none" stroke="#707070" stroke-width="1"/>
    <g id="Group_24" data-name="Group 24" transform="translate(433 -4)">
      <line id="Line_17" data-name="Line 17" y1="5" transform="translate(459.5 559.5)" fill="none" stroke="#707070" stroke-width="1"/>
      <line id="Line_18" data-name="Line 18" y1="5" transform="translate(459.5 567.5)" fill="none" stroke="#707070" stroke-width="1"/>
      <line id="Line_19" data-name="Line 19" y1="5" transform="translate(459.5 575.5)" fill="none" stroke="#707070" stroke-width="1"/>
      <line id="Line_20" data-name="Line 20" y1="5" transform="translate(459.5 583.5)" fill="none" stroke="#707070" stroke-width="1"/>
    </g>
    <g id="Group_27" data-name="Group 27" transform="translate(648 -3)">
      <line id="Line_17-2" data-name="Line 17" y1="5" transform="translate(459.5 559.5)" fill="none" stroke="#707070" stroke-width="1"/>
      <line id="Line_18-2" data-name="Line 18" y1="5" transform="translate(459.5 567.5)" fill="none" stroke="#707070" stroke-width="1"/>
      <line id="Line_19-2" data-name="Line 19" y1="5" transform="translate(459.5 575.5)" fill="none" stroke="#707070" stroke-width="1"/>
      <line id="Line_20-2" data-name="Line 20" y1="5" transform="translate(459.5 583.5)" fill="none" stroke="#707070" stroke-width="1"/>
    </g>
    <g id="Group_40" data-name="Group 40" transform="translate(998 -4)">
      <line id="Line_17-3" data-name="Line 17" y1="5" transform="translate(459.5 559.5)" fill="none" stroke="#707070" stroke-width="1"/>
      <line id="Line_18-3" data-name="Line 18" y1="5" transform="translate(459.5 567.5)" fill="none" stroke="#707070" stroke-width="1"/>
      <line id="Line_19-3" data-name="Line 19" y1="5" transform="translate(459.5 575.5)" fill="none" stroke="#707070" stroke-width="1"/>
      <line id="Line_20-3" data-name="Line 20" y1="5" transform="translate(459.5 583.5)" fill="none" stroke="#707070" stroke-width="1"/>
    </g>
    <line id="Line_16" data-name="Line 16" y1="43" transform="translate(1061.5 430.5)" fill="none" stroke="#707070" stroke-width="1"/>
    <line id="Line_24" data-name="Line 24" y1="43" transform="translate(1344.5 429.5)" fill="none" stroke="#707070" stroke-width="1"/>
    <line id="Line_14" data-name="Line 14" y1="43" transform="translate(1344.5 348.5)" fill="none" stroke="#707070" stroke-width="1"/>
    <line id="Line_34" data-name="Line 34" y1="43" transform="translate(1587.5 348.5)" fill="none" stroke="#707070" stroke-width="1"/>
    <line id="Line_27" data-name="Line 27" y1="43" transform="translate(277.5 348.5)" fill="none" stroke="#707070" stroke-width="1"/>
    <line id="Line_31" data-name="Line 31" y1="43" transform="translate(634.5 348.5)" fill="none" stroke="#707070" stroke-width="1"/>
    <line id="Line_33" data-name="Line 33" y1="43" transform="translate(736.5 348.5)" fill="none" stroke="#707070" stroke-width="1"/>
    <path id="Path_3" data-name="Path 3" d="M-472.663,0H101" transform="translate(566.5 224.5)" fill="none" stroke="#707070" stroke-width="1"/>
    <path id="Path_4" data-name="Path 4" d="M-75.1,0,376-.018" transform="translate(742.5 224.5)" fill="none" stroke="#707070" stroke-width="1"/>
    <path id="Path_5" data-name="Path 5" d="M-75.1,0,620-.018" transform="translate(967.5 348.5)" fill="none" stroke="#707070" stroke-width="1"/>
    <path id="Path_8" data-name="Path 8" d="M-75.1,0H99.927" transform="translate(177.5 348.5)" fill="none" stroke="#707070" stroke-width="1"/>
    <path id="Path_9" data-name="Path 9" d="M-75.1,0,227.709-.018" transform="translate(508.5 348.5)" fill="none" stroke="#707070" stroke-width="1"/>
    <path id="Path_6" data-name="Path 6" d="M-75.1,0,139.2.614" transform="translate(968.07 473.5)" fill="none" stroke="#707070" stroke-width="1"/>
    <path id="Path_7" data-name="Path 7" d="M-75.1,0,108.93.614" transform="translate(1349.07 472.5)" fill="none" stroke="#707070" stroke-width="1"/>
  </g>
</svg>
